<mxfile host="app.diagrams.net" modified="2021-07-27T15:32:16.774Z" agent="5.0 (Windows NT 10.0; Win64; x64) AppleWebKit/537.36 (KHTML, like Gecko) Chrome/92.0.4515.107 Safari/537.36" etag="lNSo2rcUN8aLzVxzJMwy" version="14.9.2" type="github">
  <diagram id="C5RBs43oDa-KdzZeNtuy" name="Page-1">
    <mxGraphModel dx="920" dy="2151" grid="1" gridSize="10" guides="1" tooltips="1" connect="1" arrows="1" fold="1" page="1" pageScale="1" pageWidth="1200" pageHeight="1600" math="0" shadow="0">
      <root>
        <mxCell id="WIyWlLk6GJQsqaUBKTNV-0" />
        <mxCell id="WIyWlLk6GJQsqaUBKTNV-1" parent="WIyWlLk6GJQsqaUBKTNV-0" />
        <mxCell id="3xb-tLLcojEj-Dh_vudP-10" value="" style="edgeStyle=orthogonalEdgeStyle;rounded=0;orthogonalLoop=1;jettySize=auto;html=1;" parent="WIyWlLk6GJQsqaUBKTNV-1" source="3xb-tLLcojEj-Dh_vudP-2" target="3xb-tLLcojEj-Dh_vudP-6" edge="1">
          <mxGeometry relative="1" as="geometry" />
        </mxCell>
        <mxCell id="3xb-tLLcojEj-Dh_vudP-2" value="Нашли Клиента(Contact)" style="rounded=1;whiteSpace=wrap;html=1;" parent="WIyWlLk6GJQsqaUBKTNV-1" vertex="1">
          <mxGeometry x="120" y="100" width="110" height="60" as="geometry" />
        </mxCell>
        <mxCell id="3xb-tLLcojEj-Dh_vudP-11" value="Да" style="edgeStyle=orthogonalEdgeStyle;rounded=0;orthogonalLoop=1;jettySize=auto;html=1;" parent="WIyWlLk6GJQsqaUBKTNV-1" source="3xb-tLLcojEj-Dh_vudP-6" target="3xb-tLLcojEj-Dh_vudP-7" edge="1">
          <mxGeometry relative="1" as="geometry" />
        </mxCell>
        <mxCell id="GppQpCMbyStSm05TwM85-2" value="НЕТ" style="edgeStyle=orthogonalEdgeStyle;rounded=0;orthogonalLoop=1;jettySize=auto;html=1;" edge="1" parent="WIyWlLk6GJQsqaUBKTNV-1" source="3xb-tLLcojEj-Dh_vudP-6" target="GppQpCMbyStSm05TwM85-1">
          <mxGeometry relative="1" as="geometry" />
        </mxCell>
        <mxCell id="3xb-tLLcojEj-Dh_vudP-6" value="&lt;br&gt;Статус Клиента C0?" style="rhombus;whiteSpace=wrap;html=1;" parent="WIyWlLk6GJQsqaUBKTNV-1" vertex="1">
          <mxGeometry x="250" y="100" width="110" height="60" as="geometry" />
        </mxCell>
        <mxCell id="3xb-tLLcojEj-Dh_vudP-12" value="Да" style="edgeStyle=orthogonalEdgeStyle;rounded=0;orthogonalLoop=1;jettySize=auto;html=1;" parent="WIyWlLk6GJQsqaUBKTNV-1" source="3xb-tLLcojEj-Dh_vudP-7" target="3xb-tLLcojEj-Dh_vudP-8" edge="1">
          <mxGeometry relative="1" as="geometry" />
        </mxCell>
        <mxCell id="3xb-tLLcojEj-Dh_vudP-7" value="Сумма ПЗ&amp;gt;0?" style="rhombus;whiteSpace=wrap;html=1;" parent="WIyWlLk6GJQsqaUBKTNV-1" vertex="1">
          <mxGeometry x="390" y="100" width="110" height="60" as="geometry" />
        </mxCell>
        <mxCell id="3xb-tLLcojEj-Dh_vudP-13" value="" style="edgeStyle=orthogonalEdgeStyle;rounded=0;orthogonalLoop=1;jettySize=auto;html=1;" parent="WIyWlLk6GJQsqaUBKTNV-1" source="3xb-tLLcojEj-Dh_vudP-8" target="3xb-tLLcojEj-Dh_vudP-9" edge="1">
          <mxGeometry relative="1" as="geometry" />
        </mxCell>
        <mxCell id="3xb-tLLcojEj-Dh_vudP-8" value="Ищем новый&amp;nbsp;&lt;br&gt;статус с парам.&lt;br&gt;клиента" style="rounded=1;whiteSpace=wrap;html=1;" parent="WIyWlLk6GJQsqaUBKTNV-1" vertex="1">
          <mxGeometry x="530" y="100" width="110" height="60" as="geometry" />
        </mxCell>
        <mxCell id="3xb-tLLcojEj-Dh_vudP-15" value="Нет" style="edgeStyle=orthogonalEdgeStyle;rounded=0;orthogonalLoop=1;jettySize=auto;html=1;" parent="WIyWlLk6GJQsqaUBKTNV-1" source="3xb-tLLcojEj-Dh_vudP-9" target="3xb-tLLcojEj-Dh_vudP-14" edge="1">
          <mxGeometry relative="1" as="geometry" />
        </mxCell>
        <mxCell id="GppQpCMbyStSm05TwM85-14" value="Да" style="edgeStyle=orthogonalEdgeStyle;rounded=0;orthogonalLoop=1;jettySize=auto;html=1;" edge="1" parent="WIyWlLk6GJQsqaUBKTNV-1" source="3xb-tLLcojEj-Dh_vudP-9" target="GppQpCMbyStSm05TwM85-13">
          <mxGeometry relative="1" as="geometry" />
        </mxCell>
        <mxCell id="3xb-tLLcojEj-Dh_vudP-9" value="Нашли?" style="rhombus;whiteSpace=wrap;html=1;" parent="WIyWlLk6GJQsqaUBKTNV-1" vertex="1">
          <mxGeometry x="660" y="100" width="110" height="60" as="geometry" />
        </mxCell>
        <mxCell id="3xb-tLLcojEj-Dh_vudP-14" value="Конец" style="ellipse;whiteSpace=wrap;html=1;" parent="WIyWlLk6GJQsqaUBKTNV-1" vertex="1">
          <mxGeometry x="810" y="100" width="90" height="60" as="geometry" />
        </mxCell>
        <mxCell id="3xb-tLLcojEj-Dh_vudP-18" value="" style="edgeStyle=orthogonalEdgeStyle;rounded=0;orthogonalLoop=1;jettySize=auto;html=1;" parent="WIyWlLk6GJQsqaUBKTNV-1" source="3xb-tLLcojEj-Dh_vudP-16" target="3xb-tLLcojEj-Dh_vudP-2" edge="1">
          <mxGeometry relative="1" as="geometry" />
        </mxCell>
        <mxCell id="3xb-tLLcojEj-Dh_vudP-16" value="Старт" style="ellipse;whiteSpace=wrap;html=1;" parent="WIyWlLk6GJQsqaUBKTNV-1" vertex="1">
          <mxGeometry x="10" y="100" width="90" height="60" as="geometry" />
        </mxCell>
        <mxCell id="GppQpCMbyStSm05TwM85-5" value="ДА" style="edgeStyle=orthogonalEdgeStyle;rounded=0;orthogonalLoop=1;jettySize=auto;html=1;" edge="1" parent="WIyWlLk6GJQsqaUBKTNV-1" source="GppQpCMbyStSm05TwM85-1" target="GppQpCMbyStSm05TwM85-4">
          <mxGeometry relative="1" as="geometry" />
        </mxCell>
        <mxCell id="GppQpCMbyStSm05TwM85-1" value="Статус Работа по договорам?" style="rhombus;whiteSpace=wrap;html=1;" vertex="1" parent="WIyWlLk6GJQsqaUBKTNV-1">
          <mxGeometry x="240" y="180" width="130" height="70" as="geometry" />
        </mxCell>
        <mxCell id="GppQpCMbyStSm05TwM85-7" value="" style="edgeStyle=orthogonalEdgeStyle;rounded=0;orthogonalLoop=1;jettySize=auto;html=1;" edge="1" parent="WIyWlLk6GJQsqaUBKTNV-1" source="GppQpCMbyStSm05TwM85-4" target="GppQpCMbyStSm05TwM85-6">
          <mxGeometry relative="1" as="geometry" />
        </mxCell>
        <mxCell id="GppQpCMbyStSm05TwM85-4" value="Ищем под клиентом договоры&amp;nbsp; IC, где клиент Заемщик и есть задолж(просроч)" style="rounded=1;whiteSpace=wrap;html=1;" vertex="1" parent="WIyWlLk6GJQsqaUBKTNV-1">
          <mxGeometry x="400" y="173.75" width="130" height="82.5" as="geometry" />
        </mxCell>
        <mxCell id="GppQpCMbyStSm05TwM85-8" value="НЕТ&lt;br&gt;" style="edgeStyle=orthogonalEdgeStyle;rounded=0;orthogonalLoop=1;jettySize=auto;html=1;" edge="1" parent="WIyWlLk6GJQsqaUBKTNV-1" source="GppQpCMbyStSm05TwM85-6" target="3xb-tLLcojEj-Dh_vudP-14">
          <mxGeometry relative="1" as="geometry" />
        </mxCell>
        <mxCell id="GppQpCMbyStSm05TwM85-10" value="ДА" style="edgeStyle=orthogonalEdgeStyle;rounded=0;orthogonalLoop=1;jettySize=auto;html=1;entryX=0.5;entryY=1;entryDx=0;entryDy=0;" edge="1" parent="WIyWlLk6GJQsqaUBKTNV-1" source="GppQpCMbyStSm05TwM85-6" target="GppQpCMbyStSm05TwM85-9">
          <mxGeometry x="0.5082" relative="1" as="geometry">
            <mxPoint x="720" y="250" as="targetPoint" />
            <mxPoint as="offset" />
          </mxGeometry>
        </mxCell>
        <mxCell id="GppQpCMbyStSm05TwM85-6" value="Нашли?" style="rhombus;whiteSpace=wrap;html=1;" vertex="1" parent="WIyWlLk6GJQsqaUBKTNV-1">
          <mxGeometry x="548" y="270" width="105" height="50" as="geometry" />
        </mxCell>
        <mxCell id="GppQpCMbyStSm05TwM85-12" value="" style="edgeStyle=orthogonalEdgeStyle;rounded=0;orthogonalLoop=1;jettySize=auto;html=1;" edge="1" parent="WIyWlLk6GJQsqaUBKTNV-1" source="GppQpCMbyStSm05TwM85-9" target="3xb-tLLcojEj-Dh_vudP-9">
          <mxGeometry relative="1" as="geometry" />
        </mxCell>
        <mxCell id="GppQpCMbyStSm05TwM85-9" value="Ищем новый статус" style="rounded=1;whiteSpace=wrap;html=1;" vertex="1" parent="WIyWlLk6GJQsqaUBKTNV-1">
          <mxGeometry x="662.5" y="200" width="105" height="50" as="geometry" />
        </mxCell>
        <mxCell id="GppQpCMbyStSm05TwM85-16" value="Да" style="edgeStyle=orthogonalEdgeStyle;rounded=0;orthogonalLoop=1;jettySize=auto;html=1;" edge="1" parent="WIyWlLk6GJQsqaUBKTNV-1" source="GppQpCMbyStSm05TwM85-13" target="GppQpCMbyStSm05TwM85-15">
          <mxGeometry relative="1" as="geometry" />
        </mxCell>
        <mxCell id="GppQpCMbyStSm05TwM85-18" value="НЕТ" style="edgeStyle=orthogonalEdgeStyle;rounded=0;orthogonalLoop=1;jettySize=auto;html=1;" edge="1" parent="WIyWlLk6GJQsqaUBKTNV-1" source="GppQpCMbyStSm05TwM85-13" target="3xb-tLLcojEj-Dh_vudP-14">
          <mxGeometry x="-0.4288" relative="1" as="geometry">
            <mxPoint as="offset" />
          </mxGeometry>
        </mxCell>
        <mxCell id="GppQpCMbyStSm05TwM85-13" value="Статус проверка индексов?" style="rhombus;whiteSpace=wrap;html=1;" vertex="1" parent="WIyWlLk6GJQsqaUBKTNV-1">
          <mxGeometry x="650" width="130" height="70" as="geometry" />
        </mxCell>
        <mxCell id="GppQpCMbyStSm05TwM85-19" value="" style="edgeStyle=orthogonalEdgeStyle;rounded=0;orthogonalLoop=1;jettySize=auto;html=1;" edge="1" parent="WIyWlLk6GJQsqaUBKTNV-1" source="GppQpCMbyStSm05TwM85-15" target="3xb-tLLcojEj-Dh_vudP-14">
          <mxGeometry relative="1" as="geometry" />
        </mxCell>
        <mxCell id="GppQpCMbyStSm05TwM85-15" value="Запуск подпроцесса" style="rounded=1;whiteSpace=wrap;html=1;" vertex="1" parent="WIyWlLk6GJQsqaUBKTNV-1">
          <mxGeometry x="655" y="-110" width="120" height="60" as="geometry" />
        </mxCell>
      </root>
    </mxGraphModel>
  </diagram>
</mxfile>
